<svg width="13" height="13" viewBox="0 0 13 13" fill="none" xmlns="http://www.w3.org/2000/svg">
<g clip-path="url(#clip0_2403_3322)">
<path d="M1.11035 1.11035H2.19369L3.63452 7.83785C3.68737 8.08423 3.82446 8.30448 4.0222 8.46069C4.21993 8.6169 4.46593 8.69929 4.71785 8.69368H10.0154C10.2619 8.69329 10.5009 8.6088 10.693 8.45418C10.885 8.29956 11.0186 8.08406 11.0716 7.84327L11.9654 3.81869H2.77327M4.87493 11.3749C4.87493 11.6741 4.63242 11.9166 4.33327 11.9166C4.03411 11.9166 3.7916 11.6741 3.7916 11.3749C3.7916 11.0758 4.03411 10.8333 4.33327 10.8333C4.63242 10.8333 4.87493 11.0758 4.87493 11.3749ZM10.8333 11.3749C10.8333 11.6741 10.5908 11.9166 10.2916 11.9166C9.99245 11.9166 9.74994 11.6741 9.74994 11.3749C9.74994 11.0758 9.99245 10.8333 10.2916 10.8333C10.5908 10.8333 10.8333 11.0758 10.8333 11.3749Z" stroke="#E14617" stroke-width="1.5" stroke-linecap="round" stroke-linejoin="round"/>
</g>
<defs>
<clipPath id="clip0_2403_3322">
<rect width="13" height="13" fill="white"/>
</clipPath>
</defs>
</svg>
