<svg width="12" height="10" viewBox="0 0 12 10" fill="none" xmlns="http://www.w3.org/2000/svg">
<g clip-path="url(#clip0_2403_3573)">
<path d="M5.61152 0.299072C5.91564 0.299072 6.16134 0.544775 6.16134 0.848896V1.94854H8.22318C8.90703 1.94854 9.46029 2.5018 9.46029 3.18565V7.85915C9.46029 8.54299 8.90703 9.09626 8.22318 9.09626H2.99986C2.31601 9.09626 1.76275 8.54299 1.76275 7.85915V3.18565C1.76275 2.5018 2.31601 1.94854 2.99986 1.94854H5.0617V0.848896C5.0617 0.544775 5.3074 0.299072 5.61152 0.299072ZM3.68714 6.89696C3.53594 6.89696 3.41222 7.02067 3.41222 7.17187C3.41222 7.32307 3.53594 7.44678 3.68714 7.44678H4.23696C4.38816 7.44678 4.51187 7.32307 4.51187 7.17187C4.51187 7.02067 4.38816 6.89696 4.23696 6.89696H3.68714ZM5.33661 6.89696C5.18541 6.89696 5.0617 7.02067 5.0617 7.17187C5.0617 7.32307 5.18541 7.44678 5.33661 7.44678H5.88643C6.03763 7.44678 6.16134 7.32307 6.16134 7.17187C6.16134 7.02067 6.03763 6.89696 5.88643 6.89696H5.33661ZM6.98608 6.89696C6.83488 6.89696 6.71117 7.02067 6.71117 7.17187C6.71117 7.32307 6.83488 7.44678 6.98608 7.44678H7.5359C7.68711 7.44678 7.81082 7.32307 7.81082 7.17187C7.81082 7.02067 7.68711 6.89696 7.5359 6.89696H6.98608ZM4.64933 4.69766C4.64933 4.51539 4.57692 4.34057 4.44803 4.21168C4.31914 4.08279 4.14433 4.01038 3.96205 4.01038C3.77977 4.01038 3.60496 4.08279 3.47607 4.21168C3.34718 4.34057 3.27477 4.51539 3.27477 4.69766C3.27477 4.87994 3.34718 5.05475 3.47607 5.18364C3.60496 5.31253 3.77977 5.38494 3.96205 5.38494C4.14433 5.38494 4.31914 5.31253 4.44803 5.18364C4.57692 5.05475 4.64933 4.87994 4.64933 4.69766ZM7.26099 5.38494C7.44327 5.38494 7.61808 5.31253 7.74697 5.18364C7.87586 5.05475 7.94827 4.87994 7.94827 4.69766C7.94827 4.51539 7.87586 4.34057 7.74697 4.21168C7.61808 4.08279 7.44327 4.01038 7.26099 4.01038C7.07871 4.01038 6.9039 4.08279 6.77501 4.21168C6.64612 4.34057 6.57371 4.51539 6.57371 4.69766C6.57371 4.87994 6.64612 5.05475 6.77501 5.18364C6.9039 5.31253 7.07871 5.38494 7.26099 5.38494ZM0.938017 4.14784H1.21293V7.44678H0.938017C0.482694 7.44678 0.113281 7.07737 0.113281 6.62205V4.97258C0.113281 4.51725 0.482694 4.14784 0.938017 4.14784ZM10.285 4.14784C10.7403 4.14784 11.1098 4.51725 11.1098 4.97258V6.62205C11.1098 7.07737 10.7403 7.44678 10.285 7.44678H10.0101V4.14784H10.285Z" fill="#1E40AF"/>
</g>
<defs>
<clipPath id="clip0_2403_3573">
<path d="M0.113281 0.299072H11.1098V9.09626H0.113281V0.299072Z" fill="white"/>
</clipPath>
</defs>
</svg>
