<svg width="20" height="21" viewBox="0 0 20 21" fill="none" xmlns="http://www.w3.org/2000/svg">
<path d="M11.6663 2.02954V5.36287C11.6663 5.8049 11.8419 6.22883 12.1545 6.54139C12.4671 6.85395 12.891 7.02954 13.333 7.02954H16.6663M8.33301 7.86287H6.66634M13.333 11.1962H6.66634M13.333 14.5295H6.66634M12.4997 2.02954H4.99967C4.55765 2.02954 4.13372 2.20514 3.82116 2.5177C3.5086 2.83026 3.33301 3.25418 3.33301 3.69621V17.0295C3.33301 17.4716 3.5086 17.8955 3.82116 18.2081C4.13372 18.5206 4.55765 18.6962 4.99967 18.6962H14.9997C15.4417 18.6962 15.8656 18.5206 16.1782 18.2081C16.4907 17.8955 16.6663 17.4716 16.6663 17.0295V6.19621L12.4997 2.02954Z" stroke="#E14617" stroke-width="2" stroke-linecap="round" stroke-linejoin="round"/>
</svg>
