<svg width="16" height="16" viewBox="0 0 16 16" fill="none" xmlns="http://www.w3.org/2000/svg">
<g clip-path="url(#clip0_2403_2738)">
<path d="M1.77778 0C0.797222 0 0 0.896875 0 2V11C0 12.1031 0.797222 13 1.77778 13H6.66667L6.36944 14H4.44444C3.95278 14 3.55556 14.4469 3.55556 15C3.55556 15.5531 3.95278 16 4.44444 16H11.5556C12.0472 16 12.4444 15.5531 12.4444 15C12.4444 14.4469 12.0472 14 11.5556 14H9.63056L9.33333 13H14.2222C15.2028 13 16 12.1031 16 11V2C16 0.896875 15.2028 0 14.2222 0H1.77778ZM14.2222 2V9H1.77778V2H14.2222Z" fill="#9CA3AF"/>
</g>
<defs>
<clipPath id="clip0_2403_2738">
<path d="M0 0H16V16H0V0Z" fill="white"/>
</clipPath>
</defs>
</svg>
