<svg width="32" height="25" viewBox="0 0 32 25" fill="none" xmlns="http://www.w3.org/2000/svg">
<path d="M14.3 20.4001C14.2999 20.5952 14.3542 20.7865 14.4568 20.9525C14.5593 21.1184 14.7061 21.2526 14.8807 21.3398L16.9807 22.3898C17.1408 22.4698 17.3187 22.5076 17.4975 22.4995C17.6763 22.4914 17.8501 22.4377 18.0023 22.3435C18.1546 22.2494 18.2802 22.1179 18.3673 21.9615C18.4544 21.8051 18.5001 21.629 18.5 21.4501V14.1C18.5002 13.5797 18.6937 13.0779 19.0429 12.692L26.627 4.30355C26.7629 4.15294 26.8523 3.96617 26.8844 3.76583C26.9164 3.56549 26.8897 3.36016 26.8075 3.17467C26.7253 2.98918 26.5911 2.83147 26.4212 2.72062C26.2513 2.60977 26.0529 2.55053 25.85 2.55005H6.95001C6.74695 2.55012 6.54826 2.60908 6.37802 2.71977C6.20778 2.83046 6.07329 2.98814 5.99084 3.17371C5.90839 3.35928 5.88152 3.56478 5.91348 3.76531C5.94544 3.96584 6.03486 4.1528 6.17091 4.30355L13.7572 12.692C14.1063 13.0779 14.2998 13.5797 14.3 14.1V20.4001Z" stroke="#64748B" stroke-width="1.2" stroke-linecap="round" stroke-linejoin="round"/>
</svg>
