<svg width="16" height="17" viewBox="0 0 16 17" fill="none" xmlns="http://www.w3.org/2000/svg">
<g clip-path="url(#clip0_2400_2047)">
<path d="M14.6663 8.49992C14.6663 12.1818 11.6816 15.1666 7.99967 15.1666M14.6663 8.49992C14.6663 4.81802 11.6816 1.83325 7.99967 1.83325M14.6663 8.49992H1.33301M7.99967 15.1666C4.31778 15.1666 1.33301 12.1818 1.33301 8.49992M7.99967 15.1666C6.28783 13.3692 5.33301 10.9821 5.33301 8.49992C5.33301 6.01775 6.28783 3.63069 7.99967 1.83325M7.99967 15.1666C9.71152 13.3692 10.6663 10.9821 10.6663 8.49992C10.6663 6.01775 9.71152 3.63069 7.99967 1.83325M1.33301 8.49992C1.33301 4.81802 4.31778 1.83325 7.99967 1.83325" stroke="#9CA3AF" stroke-width="2" stroke-linecap="round" stroke-linejoin="round"/>
</g>
<defs>
<clipPath id="clip0_2400_2047">
<rect width="16" height="16" fill="white" transform="translate(0 0.5)"/>
</clipPath>
</defs>
</svg>
