<svg width="18" height="18" viewBox="0 0 18 18" fill="none" xmlns="http://www.w3.org/2000/svg">
<path d="M14.667 4.75008C15.0778 4.75008 15.4107 4.89175 15.6728 5.168C15.942 5.45842 16.0837 5.77716 16.0837 6.16675V13.9584C16.0837 14.348 15.942 14.6667 15.6728 14.9572C15.4107 15.2334 15.0778 15.3751 14.667 15.3751H3.33366C2.92283 15.3751 2.58991 15.2334 2.32783 14.9572C2.05866 14.6667 1.91699 14.348 1.91699 13.9584V6.16675C1.91699 5.77716 2.05866 5.45842 2.32783 5.168C2.58991 4.89175 2.92283 4.75008 3.33366 4.75008H6.16699V3.33341C6.16699 2.92258 6.30866 2.58966 6.57783 2.32758C6.83991 2.05841 7.17283 1.91675 7.58366 1.91675H10.417C10.8278 1.91675 11.1607 2.05841 11.4228 2.32758C11.692 2.58966 11.8337 2.92258 11.8337 3.33341V4.75008H14.667ZM3.33366 6.16675V13.9584H14.667V6.16675H3.33366ZM10.417 4.75008V3.33341H7.58366V4.75008H10.417Z" fill="#9CA3AF"/>
</svg>
