<svg width="14" height="13" viewBox="0 0 14 13" fill="none" xmlns="http://www.w3.org/2000/svg">
<g clip-path="url(#clip0_2403_2807)">
<path d="M12.9912 6.48828V6.48926V6.49023H11.4922L11.4951 7.24414L11.5117 10.999C11.5115 11.0254 11.5098 11.0587 11.5049 11.1025L11.5 11.1436V11.5625C11.5 11.6663 11.4163 11.75 11.3125 11.75H10.918L10.8672 11.7451L10.8066 11.75H9.4375C9.33374 11.75 9.25 11.6663 9.25 11.5625V9.5C9.25 8.67094 8.57906 8 7.75 8H6.25C5.42094 8 4.75 8.67094 4.75 9.5V11.5625C4.75 11.6663 4.66626 11.75 4.5625 11.75H3.25195C3.24589 11.75 3.23482 11.7496 3.19629 11.7471L3.14062 11.7432L3.08496 11.748C3.07763 11.7487 3.07215 11.7487 3.06738 11.749C3.06282 11.7494 3.05958 11.7499 3.05762 11.75H2.6875C2.58374 11.75 2.5 11.6663 2.5 11.5625V8.9375L2.50195 8.91309V6.49023H1V6.48828L1.00098 6.47168L1 6.47266L1.00098 6.4707H1C1.00066 6.4698 1.00264 6.46932 1.00391 6.46777L6.98633 1.25293L6.98828 1.25C6.99419 1.24983 7.00156 1.25 7.00977 1.25C7.01529 1.25002 7.02201 1.25006 7.02832 1.25098C7.03084 1.25135 7.03317 1.25154 7.03516 1.25195L12.9912 6.48828Z" stroke="#E14617" stroke-width="1.5"/>
</g>
<defs>
<clipPath id="clip0_2403_2807">
<path d="M0.25 0.5H13.75V12.5H0.25V0.5Z" fill="white"/>
</clipPath>
</defs>
</svg>
