<?xml version="1.0" encoding="UTF-8"?>
<svg id="Layer_1" xmlns="http://www.w3.org/2000/svg" version="1.1" viewBox="0 0 15 16">
  <!-- Generator: Adobe Illustrator 29.5.1, SVG Export Plug-In . SVG Version: 2.1.0 Build 141)  -->
  <defs>
    <style>
      .st0 {
        fill: none;
        stroke: #333;
        stroke-linejoin: round;
        stroke-opacity: .8;
      }
    </style>
  </defs>
  <path class="st0" d="M2.5,4.7h1.1M3.6,4.7h8.8M3.6,4.7v7.7c0,.3.1.6.3.8.2.2.5.3.8.3h5.5c.3,0,.6-.1.8-.3s.3-.5.3-.8v-7.7H3.6ZM5.3,4.7v-1.1c0-.3.1-.6.3-.8.2-.2.5-.3.8-.3h2.2c.3,0,.6.1.8.3.2.2.3.5.3.8v1.1M6.4,7.4v3.3M8.6,7.4v3.3"/>
</svg>