<svg id="Layer_1" data-name="Layer 1" xmlns="http://www.w3.org/2000/svg" viewBox="0 0 100 100">
                <defs>
                  <style>
      .cls-1 {
        fill: CurrentColor;
      }
    </style>
                </defs>
                <path class="cls-1" d="M85.19,14.81H14.81c-1.7,0-3.32.67-4.52,1.87-1.2,1.2-1.87,2.83-1.87,4.52v38.38c0,1.7.67,3.32,1.87,4.52,1.2,1.2,2.83,1.87,4.52,1.87h6.4v15.99c0,.85.34,1.66.94,2.26.6.6,1.41.94,2.26.94s1.66-.34,2.26-.94c.6-.6.94-1.41.94-2.26v-3.2h44.78v3.2c0,.85.34,1.66.94,2.26.6.6,1.41.94,2.26.94s1.66-.34,2.26-.94c.6-.6.94-1.41.94-2.26v-15.99h6.4c1.7,0,3.32-.67,4.52-1.87,1.2-1.2,1.87-2.83,1.87-4.52V21.21c0-1.7-.67-3.32-1.87-4.52-1.2-1.2-2.83-1.87-4.52-1.87ZM85.19,21.21v12.79l-12.79-12.79h12.79ZM62.79,21.21l22.39,22.39v15.99L46.8,21.21h15.99ZM37.21,59.6l-22.39-22.39v-15.99l38.38,38.38h-15.99ZM14.81,59.6v-12.79l12.79,12.79h-12.79ZM72.39,72.39H27.61v-6.4h44.78v6.4ZM71.07,59.6h-8.27L24.41,21.21h12.79l38.38,38.38h-4.52Z"/>
              </svg>