<svg id="Layer_1" data-name="Layer 1" xmlns="http://www.w3.org/2000/svg" viewBox="0 0 100 100">
                <defs>
                  <style>
      .cls-1 {
        fill: CurrentColor;
      }
    </style>
                </defs>
                <path class="cls-1" d="M86.95,88.25H20.83c-.5,0-1-.12-1.45-.34-.39-.2-9.57-4.92-9.57-16.52s9.18-16.32,9.57-16.52c.45-.23.95-.34,1.45-.34h66.11c1.51,0,2.82,1.04,3.16,2.5.34,1.46-.35,2.96-1.69,3.64-.3.16-6,3.25-6,10.71s5.76,10.59,6.01,10.72c1.33.69,2.02,2.21,1.67,3.66-.36,1.45-1.65,2.48-3.14,2.48ZM21.72,81.75h57.18c-1.66-2.55-2.98-5.96-2.98-10.36s1.32-7.81,2.98-10.36H21.72c-1.5.99-5.41,4.18-5.41,10.36s3.9,9.35,5.42,10.36ZM79.17,45.47H13.05c-1.51,0-2.82-1.04-3.16-2.5-.35-1.47.36-2.98,1.71-3.65.22-.12,5.98-3.21,5.98-10.71s-5.92-10.67-5.98-10.7c-1.35-.67-2.06-2.19-1.71-3.65.35-1.47,1.66-2.5,3.16-2.5h66.11c.5,0,1,.12,1.45.34.39.2,9.58,4.92,9.58,16.52s-9.18,16.32-9.58,16.52c-.45.23-.95.34-1.45.34ZM21.1,38.97h57.18c1.5-.99,5.42-4.18,5.42-10.36s-3.9-9.35-5.42-10.36H21.1c1.66,2.55,2.98,5.96,2.98,10.36s-1.32,7.81-2.98,10.36Z"/>
              </svg>