<svg id="Layer_1" data-name="Layer 1" xmlns="http://www.w3.org/2000/svg" viewBox="0 0 100 100">
                                <defs>
                                  <style>
      .cls-1 {
        fill: CurrentColor;
      }
    </style>
                                </defs>
                                <path class="cls-1" d="M86.75,31.16c.06.82.06,1.64.06,2.47,0,25.07-19.08,53.95-53.95,53.95-10.74,0-20.72-3.11-29.12-8.51,1.53.18,2.99.23,4.58.23,8.86,0,17.02-2.99,23.54-8.1-8.34-.18-15.32-5.64-17.73-13.15,1.17.18,2.35.29,3.58.29,1.7,0,3.4-.23,4.99-.65-8.69-1.76-15.2-9.39-15.2-18.61v-.23c2.52,1.41,5.46,2.29,8.57,2.41-5.11-3.4-8.45-9.22-8.45-15.79,0-3.52.94-6.75,2.58-9.57,9.33,11.51,23.36,19.02,39.1,19.84-.29-1.41-.47-2.88-.47-4.34,0-10.45,8.45-18.96,18.96-18.96,5.46,0,10.39,2.29,13.85,5.99,4.29-.82,8.4-2.41,12.03-4.58-1.41,4.4-4.4,8.1-8.34,10.45,3.82-.41,7.51-1.47,10.92-2.94-2.58,3.76-5.81,7.1-9.51,9.8Z"/>
                              </svg>