<svg id="Layer_1" data-name="Layer 1" xmlns="http://www.w3.org/2000/svg" viewBox="0 0 100 100">
                      <defs>
                        <style>
      .cls-1 {
        fill: CurrentColor;
      }
    </style>
                      </defs>
                      <path class="cls-1" d="M50,95.3c-2.68,0-4.85-2.17-4.85-4.85v-7.63c-7.02-1.02-13.49-4.26-18.6-9.37-6.17-6.17-9.71-14.72-9.71-23.45v-8.09c0-2.68,2.17-4.85,4.85-4.85s4.85,2.17,4.85,4.85v8.09c0,6.17,2.5,12.22,6.87,16.59,8.87,8.86,24.32,8.87,33.17,0,4.44-4.43,6.88-10.32,6.88-16.59v-8.09c0-2.68,2.17-4.85,4.85-4.85s4.85,2.17,4.85,4.85v8.09c0,8.87-3.45,17.2-9.72,23.45-5.11,5.11-11.58,8.34-18.59,9.37v7.63c0,2.68-2.17,4.85-4.85,4.85ZM50,66.99c-9.37,0-16.99-7.62-16.99-16.99v-28.31c0-9.37,7.62-16.99,16.99-16.99s16.99,7.62,16.99,16.99v28.31c0,9.37-7.62,16.99-16.99,16.99ZM50,14.41c-4.01,0-7.28,3.27-7.28,7.28v28.31c0,4.01,3.27,7.28,7.28,7.28s7.28-3.27,7.28-7.28v-28.31c0-4.01-3.27-7.28-7.28-7.28Z"/>
                    </svg>