<svg id="Layer_1" data-name="Layer 1" xmlns="http://www.w3.org/2000/svg" viewBox="0 0 100 100">
                <defs>
                  <style>
      .cls-1 {
        fill: CurrentColor;
      }
    </style>
                </defs>
                <path class="cls-1" d="M21,7.28c14.56-1.74,32.04,1.02,46.9-.06,5.6.56,11.22,4.41,13.14,9.78,1.29,3.6,1.62,16.36,1.01,20.22s-5.94,3.96-6.5.41c-1.37-8.71,4.3-22.87-9.22-23.93-14.07-1.1-29.57.85-43.8.02-5.54.52-8.39,3.7-8.82,9.19.76,14.05-.96,29.07,0,43.01.36,5.31,2.62,8.64,8.04,9.55l27.19.23c3.08,1.47,2.42,4.87-.41,6.18-8.53-.17-17.99.86-26.43.2s-14.27-6.51-14.94-14.94c-1.17-14.78.81-31.2.13-46.15.9-7.31,6.38-12.83,13.71-13.71Z"/>
                <path class="cls-1" d="M61.09,69.47c4.54-.77,18.76-.55,23.66-.11,10.41.93,10.74,13.91,3.66,19.65-7.72,6.26-26.06,5.91-32.29-2.48-4.34-5.85-3.09-15.69,4.97-17.06ZM86.45,76.45c-.66-.49-1.26-.85-2.11-.95-6.71-.84-15.18.64-22.09.04-3.52.9-2.93,4.88-1.23,7.31,4.76,6.77,29.75,6.34,25.43-6.4Z"/>
                <path class="cls-1" d="M85.47,55.11c0,6.63-5.37,12-12,12s-12-5.37-12-12,5.37-12,12-12,12,5.37,12,12ZM79.33,55.07c0-3.24-2.63-5.87-5.87-5.87s-5.87,2.63-5.87,5.87,2.63,5.87,5.87,5.87,5.87-2.63,5.87-5.87Z"/>
                <path class="cls-1" d="M40.61,28.53l23.22-.06c3.36.53,3.46,5.85-1.24,6.49-3.84.52-16.58.53-20.39,0s-4.9-4.39-1.59-6.43Z"/>
                <path class="cls-1" d="M39.62,49.61c-1.72-1.72-.89-5.18,1.75-5.59s12.99-.4,15.5,0c3.83.61,3.51,5.95,0,6.5-2.75.43-11.83.36-14.72.04-.68-.08-2.09-.49-2.54-.94Z"/>
                <path class="cls-1" d="M41.43,59.64c1.8-.4,13.89-.34,15.7.09,3.33.8,3.32,5.31.17,6.36-4.7-.62-11.89.9-16.27-.08-3.42-.76-2.79-5.66.41-6.37Z"/>
                <circle class="cls-1" cx="27.59" cy="31.52" r="4.61"/>
                <circle class="cls-1" cx="27.61" cy="62.96" r="4.59"/>
                <circle class="cls-1" cx="27.64" cy="47.27" r="4.57"/>
              </svg>