<svg id="Layer_1" data-name="Layer 1" xmlns="http://www.w3.org/2000/svg" viewBox="0 0 100 100">
                <defs>
                  <style>
      .cls-1 {
        fill: CurrentColor;
      }
    </style>
                </defs>
                <path class="cls-1" d="M41.11,21.56c1.13-.12,2.46.53,3.17,1.41,1.53,1.89,2.87,8.27,4.52,11.19,2.14,3.78,5.96,7.23,9.85,9.15,2.25,1.11,9.97,3.1,10.76,4.95.63,1.46.46,3.44-.84,4.46-1.96,1.55-7.49,2.73-10.17,4.08-4.72,2.38-8.52,6.42-10.71,11.21-1.52,3.33-2.78,13.04-8.24,9.83-1.81-1.06-3.02-6.71-3.94-8.84-2.26-5.25-6.14-9.87-11.37-12.38-2.44-1.17-8.05-2.43-9.77-3.75-1.8-1.39-1.72-4.3,0-5.75,9.62-3.26,16.7-6.08,21.03-15.88,1.31-2.96,2.09-9.3,5.7-9.68ZM59.1,49.64c-8.34-2.49-14.69-9.51-17.72-17.55-2.53,6.91-7.48,12.86-14.05,16.28-.99.51-2.22.76-3.15,1.23-.38.2-.69-.19-.52.76,8.43,2.3,14.75,9.56,17.72,17.55,2.45-6.44,6.76-11.91,12.73-15.41,1.42-.83,3.03-1.35,4.48-2.1.38-.2.69.19.52-.76Z"/>
                <path class="cls-1" d="M86.02,75.69c1.48,1.6,1.02,4.26-.88,5.28-4.32,2.33-6.77,1.2-9.43,6.65-1.25,2.57-1.74,7.66-5.93,5.94-2.26-.93-2.95-7.18-6.3-9.78-2.54-1.97-10.4-2.68-7.76-7.37,1.17-2.08,6.42-2.56,8.84-5.05s2.99-9.21,6.39-9.27,3.71,4.7,5,7.02c.58,1.03,1.74,2.46,2.68,3.17,1.9,1.43,6.37,2.31,7.38,3.4ZM71.51,72.66c-.56-.14-.58.08-.88.39-1.59,1.59-2.87,3.73-4.95,4.91l3.84,3.46,1.28,2.2,5.83-5.66c-1.97-1.48-4.22-2.84-5.12-5.3Z"/>
                <path class="cls-1" d="M86.02,24.31c-1.01,1.09-5.48,1.97-7.38,3.4-.94.71-2.1,2.14-2.68,3.17-1.29,2.32-1.5,7.09-5,7.02s-3.97-6.79-6.39-9.27-7.67-2.97-8.84-5.05c-2.64-4.69,5.22-5.4,7.76-7.37,3.34-2.59,4.03-8.85,6.3-9.78,4.18-1.71,4.63,3.37,5.92,5.94,2.67,5.34,5.03,4.29,9.35,6.73,1.97,1.12,2.56,3.48.96,5.21ZM71.51,27.34c.93-2.41,3.07-3.92,5.11-5.3l-5.83-5.66-1.65,2.56-3.47,3.1c2.08,1.18,3.37,3.32,4.95,4.91.3.3.33.52.88.39Z"/>
              </svg>