<svg id="Layer_1" data-name="Layer 1" xmlns="http://www.w3.org/2000/svg" viewBox="0 0 100 100">
                <defs>
                  <style>
      .cls-1 {
        fill: CurrentColor;
      }
    </style>
                </defs>
                <path class="cls-1" d="M87.72,9.03h-26.54c-1.79,0-3.25,1.46-3.25,3.25v32.14c0,3.88-3.55,7.04-7.92,7.04s-7.92-3.16-7.92-7.04V12.28c0-1.79-1.46-3.25-3.25-3.25H12.28c-1.79,0-3.25,1.46-3.25,3.25v39.11c0,21.82,18.38,39.57,40.97,39.57s40.97-17.75,40.97-39.57V12.28c0-1.79-1.46-3.25-3.25-3.25ZM64.42,15.53h20.04v12.36h-20.04v-12.36ZM35.58,15.53v12.36H15.53v-12.36h20.04ZM50,84.47c-19,0-34.47-14.84-34.47-33.07v-17h20.04v10.04c0,7.46,6.47,13.54,14.42,13.54s14.42-6.07,14.42-13.54v-10.04h20.04v17c0,18.24-15.46,33.07-34.47,33.07Z"/>
              </svg>