<svg id="Layer_1" data-name="Layer 1" xmlns="http://www.w3.org/2000/svg" viewBox="0 0 100 100">
                      <defs>
                        <style>
      .cls-1 {
        fill: CurrentColor;
      }
    </style>
                      </defs>
                      <path class="cls-1" d="M50,94.61c-2.09,0-4.19-.11-6.27-.32-1.74-.18-3-1.73-2.82-3.48.17-1.74,1.74-2.99,3.48-2.82,3.72.38,7.5.38,11.22,0,1.69-.18,3.3,1.08,3.48,2.82.18,1.74-1.08,3.3-2.82,3.48-2.08.22-4.18.32-6.27.32ZM50,85.71c-3.17,0-6.35-.3-9.49-.9-1.72-.33-2.85-1.98-2.52-3.7.32-1.73,2-2.85,3.7-2.52,5.51,1.04,11.1,1.04,16.64,0,1.66-.32,3.37.8,3.7,2.52.33,1.72-.8,3.38-2.52,3.7-3.15.59-6.33.9-9.49.9ZM58.91,76.8c-1.75,0-3.17-1.42-3.17-3.17v-.75c0-4.71,2.82-9.17,7.55-11.91,5.02-2.91,9.01-7.46,11.23-12.82,2.21-5.37,2.6-11.41,1.1-17.01-1.51-5.6-4.87-10.63-9.48-14.16-9.22-7.06-23.07-7.06-32.27,0-4.61,3.53-7.97,8.56-9.48,14.16-1.5,5.6-1.11,11.64,1.1,17.01,2.21,5.36,6.2,9.92,11.22,12.82,4.74,2.75,7.56,7.2,7.56,11.91v.75c0,1.75-1.42,3.17-3.17,3.17s-3.17-1.42-3.17-3.17v-.75c0-2.43-1.65-4.84-4.4-6.43-6.22-3.6-11.16-9.24-13.9-15.89-2.75-6.64-3.23-14.12-1.36-21.07,1.86-6.94,6.03-13.17,11.74-17.54,11.39-8.75,28.57-8.75,39.98,0,5.7,4.37,9.87,10.6,11.73,17.54,1.87,6.95,1.39,14.42-1.36,21.07-2.74,6.65-7.68,12.29-13.9,15.89-2.75,1.6-4.39,4-4.39,6.43v.75c0,1.75-1.42,3.17-3.17,3.17ZM50,76.8c-1.75,0-3.17-1.42-3.17-3.17v-17.8c-1.19-.14-2.38-.36-3.55-.66-1.69-.43-2.72-2.15-2.29-3.85.43-1.69,2.11-2.73,3.85-2.29,1.68.43,3.39.64,5.09.64h.07s.05,0,.07,0c1.7,0,3.41-.22,5.09-.64,1.71-.45,3.42.59,3.85,2.29.43,1.69-.59,3.41-2.29,3.85-1.17.3-2.36.52-3.55.66v17.8c0,1.75-1.42,3.17-3.17,3.17Z"/>
                    </svg>