<svg id="Layer_1" data-name="Layer 1" xmlns="http://www.w3.org/2000/svg" viewBox="0 0 100 100">
                                        <defs>
                                          <style>
      .cls-1 {
        fill: CurrentColor;
      }
    </style>
                                        </defs>
                                        <path class="cls-1" d="M70.77,96.74c-2.87,0-5.19-2.33-5.19-5.19v-29.01l-6.72,6.72c-2.03,2.03-5.32,2.03-7.34,0s-2.03-5.32,0-7.34l15.58-15.58c.49-.49,1.07-.87,1.68-1.12,1.23-.51,2.76-.51,3.99,0,.61.25,1.18.63,1.68,1.12l15.58,15.58c2.03,2.03,2.03,5.32,0,7.34s-5.32,2.03-7.34,0l-6.72-6.72v29.01c0,2.87-2.33,5.19-5.19,5.19ZM8.45,65.58c-1.33,0-2.66-.51-3.67-1.52-2.03-2.03-2.03-5.32,0-7.34L46.33,15.17c2.03-2.03,5.32-2.03,7.34,0l11.91,11.91,22.3-22.3c2.03-2.03,5.32-2.03,7.34,0s2.03,5.32,0,7.34l-25.97,25.97c-2.03,2.03-5.32,2.03-7.34,0l-11.91-11.91L12.12,64.06c-1.01,1.01-2.34,1.52-3.67,1.52Z"/>
                                      </svg>