<svg width="15" height="14" fill="none" xmlns="http://www.w3.org/2000/svg" viewBox="0 0 15 14">
                        <g clip-path="url(#clip0_2400_1993)">
                          <path d="M12.9587 7.00008H11.512C11.2571 6.99954 11.009 7.08251 10.8056 7.23631C10.6023 7.39011 10.455 7.60628 10.3862 7.85175L9.01533 12.7284C9.00649 12.7587 8.98807 12.7853 8.96282 12.8042C8.93758 12.8232 8.90688 12.8334 8.87533 12.8334C8.84377 12.8334 8.81307 12.8232 8.78783 12.8042C8.76258 12.7853 8.74416 12.7587 8.73533 12.7284L5.51533 1.27175C5.50649 1.24146 5.48807 1.21485 5.46283 1.19591C5.43758 1.17698 5.40688 1.16675 5.37533 1.16675C5.34377 1.16675 5.31307 1.17698 5.28783 1.19591C5.26258 1.21485 5.24416 1.24146 5.23533 1.27175L3.86449 6.14841C3.79593 6.39292 3.64946 6.60838 3.44733 6.76209C3.24519 6.9158 2.99843 6.99935 2.74449 7.00008H1.29199" stroke="#6B7280" stroke-width="1.5" stroke-linecap="round" stroke-linejoin="round"/>
                        </g>
                        <defs>
                          <clippath id="clip0_2400_1993">
                            <rect width="14" height="14" fill="white" transform="translate(0.125)"/>
                          </clippath>
                        </defs>
                      </svg>