<svg id="Layer_1" data-name="Layer 1" xmlns="http://www.w3.org/2000/svg" viewBox="0 0 100 100">
                      <defs>
                        <style>
      .cls-1 {
        fill: CurrentColor;
      }
    </style>
                      </defs>
                      <path class="cls-1" d="M77.99,94.78H22.01c-2.36,0-4.56-.91-6.22-2.57-1.66-1.68-2.57-3.89-2.57-6.22V14.02c0-2.36.91-4.56,2.57-6.22s3.87-2.57,6.22-2.57h39.98c1.27,0,2.49.51,3.39,1.41l19.99,19.99c.9.9,1.41,2.12,1.41,3.39v55.97c0,2.34-.91,4.54-2.57,6.21-1.65,1.65-3.91,2.59-6.23,2.59ZM22.81,85.18h54.37V32l-17.18-17.18H22.81v70.36ZM65.99,62.79h-31.98c-2.65,0-4.8-2.15-4.8-4.8s2.15-4.8,4.8-4.8h31.98c2.65,0,4.8,2.15,4.8,4.8s-2.15,4.8-4.8,4.8ZM65.99,46.8h-31.98c-2.65,0-4.8-2.15-4.8-4.8s2.15-4.8,4.8-4.8h31.98c2.65,0,4.8,2.15,4.8,4.8s-2.15,4.8-4.8,4.8Z"/>
                    </svg>