<svg id="Layer_1" data-name="Layer 1" xmlns="http://www.w3.org/2000/svg" viewBox="0 0 100 100">
                <defs>
                  <style>
      .cls-1 {
        fill: CurrentColor;
      }
    </style>
                </defs>
                <path class="cls-1" d="M64.92,43.06c6.87-2.36,6.22.93,7.59,6.33l3.96,1.13c1.43.14,4.56-6.33,7.1-4.1,1.16,1.8,8.35,8,8.75,9.32.8,2.62-3.18,4.37-4.37,6.37l1.02,4.03c3.07,1.89,7.52.3,6.63,5.16-.4,2.2-2.16,8.56-3.03,10.52-1.47,3.33-5.5.23-8.11.2l-2.94,3.08c-.02,3.53,3.29,6.42-1.27,8.11-1.84.68-10.63,2.89-12.08,2.45-1.71-.52-1.65-5.06-2.4-6.61l-4.39-1.51c-2.49,1.59-4.41,6.63-7.59,3.32-.98-2.17-7.53-7-8.01-8.56-.8-2.62,3.18-4.37,4.37-6.37l-1.02-4.03c-4.03-2.08-8.81-.66-6.06-7.02-1.66-.31-5.58.94-6.01-1.33l-.03-24.84.55-1.34,25.99-.33c2.27.43,1.02,4.35,1.33,6.01ZM60.59,40.81h-19.19l-.56.56v19.19c.76.92,2.24.57,3.34.51.68-1.39,1.01-5.81,2.57-6.28,1.79-.54,4.76,1.23,6.65,1.35l3.17-2.62c-.61-5.81-3.4-8.54,4.55-9.37.06-.79.31-3.09-.53-3.35ZM89.38,78.82l1.86-7.29-5.79-2.51c.13-1.76-2.19-6.88-2.02-8,.29-1.84,4.18-3.51,4.02-4.53l-4.85-5.36c-1.48-.74-3.65,3.4-5.09,3.61l-6.88-1.77c-2.84-.87-1.97-4.43-3.25-6.51l-7.34,1.88c-.35,1.92,1.52,4.73.97,6.4-.36,1.09-4.73,3.91-5.5,5.43-2.09.89-4.63-1-6.77-.93l-1.86,7.29,5.65,2.28c.12,2.07,2.05,5.96,2.14,7.62s-4.19,4.19-4.02,5.15l5.11,5.47,4.86-3.73,8.48,2.52,1.65,5.76,7.34-1.88c.35-1.92-1.52-4.73-.97-6.4.36-1.09,4.73-3.91,5.5-5.43,2.09-.89,4.63,1,6.77.93Z"/>
                <path class="cls-1" d="M6.49,4.76l24.01-.09c1.41.16,2.26.61,2.46,2.06.97,7.26-.77,16.63,0,24.12-.2,1.57-1,1.94-2.44,2.07-7.5.71-16.12-.59-23.75,0-1.39-.02-1.91-1.2-2.06-2.46-.56-4.85-.57-18.5,0-23.35.14-1.22.51-2.04,1.78-2.36ZM28.8,8.82H8.85v19.94h19.94V8.82Z"/>
                <path class="cls-1" d="M64.46,32.44c-.58.42-1.28.42-1.96.48-6.01.49-16.99.51-22.99,0-.75-.06-1.44-.08-2.06-.57l-.02-26.76c.6-.62,1.25-.82,2.09-.92,5.12-.59,17.37-.49,22.61,0,.98.09,1.74.16,2.46.93l-.12,26.84ZM61.16,8.82h-20.32v19.94h20.32V8.82Z"/>
                <path class="cls-1" d="M32.47,64.43l-26.84.12c-.62-.6-.82-1.25-.92-2.09-.59-5.12-.49-17.37,0-22.61.09-.98.16-1.74.93-2.46l26.76.02c.49.62.51,1.31.57,2.06.51,5.99.49,16.98,0,22.99-.06.69-.06,1.38-.48,1.96ZM8.85,40.81v20.32h19.94v-20.32H8.85Z"/>
                <path class="cls-1" d="M77.12,69.03c0,4.44-3.6,8.04-8.04,8.04s-8.04-3.6-8.04-8.04,3.6-8.04,8.04-8.04,8.04,3.6,8.04,8.04ZM73.03,69.03c0-2.22-1.8-4.01-4.01-4.01s-4.01,1.8-4.01,4.01,1.8,4.01,4.01,4.01,4.01-1.8,4.01-4.01Z"/>
              </svg>