<svg width="17" height="16" fill="none" xmlns="http://www.w3.org/2000/svg" viewBox="0 0 17 16">
                        <path d="M10.2087 1.33325V3.99992C10.2087 4.35354 10.3491 4.69268 10.5992 4.94273C10.8492 5.19278 11.1884 5.33325 11.542 5.33325H14.2087M10.8753 1.33325H4.87533C4.5217 1.33325 4.18256 1.47373 3.93252 1.72378C3.68247 1.97382 3.54199 2.31296 3.54199 2.66659V13.3333C3.54199 13.6869 3.68247 14.026 3.93252 14.2761C4.18256 14.5261 4.5217 14.6666 4.87533 14.6666H12.8753C13.2289 14.6666 13.5681 14.5261 13.8181 14.2761C14.0682 14.026 14.2087 13.6869 14.2087 13.3333V4.66659L10.8753 1.33325Z" stroke="#6B7280" stroke-width="2" stroke-linecap="round" stroke-linejoin="round"/>
                      </svg>