<svg id="Layer_1" data-name="Layer 1" xmlns="http://www.w3.org/2000/svg" viewBox="0 0 100 100">
                      <defs>
                        <style>
      .cls-1 {
        fill: CurrentColor;
      }
    </style>
                      </defs>
                      <path class="cls-1" d="M24.35,6.02c-4.86,0-9.52,1.93-12.96,5.37-3.44,3.44-5.37,8.1-5.37,12.96v51.31c0,4.86,1.93,9.52,5.37,12.96,3.44,3.44,8.1,5.37,12.96,5.37h26.91c4.86,0,9.52-1.93,12.95-5.37l24.4-24.4c3.43-3.44,5.36-8.09,5.37-12.95v-26.91c0-4.86-1.93-9.52-5.37-12.96-3.44-3.44-8.1-5.37-12.96-5.37H24.35ZM13.35,24.35c0-2.92,1.16-5.71,3.22-7.77,2.06-2.06,4.86-3.22,7.77-3.22h51.31c2.92,0,5.71,1.16,7.77,3.22,2.06,2.06,3.22,4.86,3.22,7.77v25.65h-18.32c-4.86,0-9.52,1.93-12.96,5.37-3.44,3.44-5.37,8.1-5.37,12.96v18.32h-25.65c-2.92,0-5.71-1.16-7.77-3.22-2.06-2.06-3.22-4.86-3.22-7.77V24.35ZM57.33,84.82v-16.49c0-2.92,1.16-5.71,3.22-7.77,2.06-2.06,4.86-3.22,7.77-3.22h16.49c-.4.61-.86,1.17-1.39,1.7l-24.39,24.4c-.52.52-1.09.98-1.7,1.39"/>
                    </svg>