<svg id="Layer_1" data-name="Layer 1" xmlns="http://www.w3.org/2000/svg" viewBox="0 0 100 100">
                <defs>
                  <style>
      .cls-1 {
        fill: CurrentColor;
      }
    </style>
                </defs>
                <path class="cls-1" d="M58.34,88.7h-16.68c-16.64,0-25,0-30.84-6.22-5.77-6.13-5.77-14.94-5.77-32.48s0-26.35,5.77-32.48c5.85-6.21,14.2-6.21,30.84-6.21h16.68c16.64,0,24.99,0,30.84,6.22,5.77,6.13,5.77,14.94,5.77,32.48s0,26.35-5.77,32.48c-5.85,6.21-14.2,6.21-30.84,6.21ZM41.66,17.8c-14.77,0-22.18,0-26.11,4.17-4,4.25-4,12.2-4,28.03s0,23.77,4,28.03c3.92,4.17,11.33,4.17,26.11,4.17h16.68c14.77,0,22.18,0,26.11-4.17,4-4.25,4-12.2,4-28.03s0-23.77-4-28.03c-3.92-4.17-11.34-4.17-26.11-4.17h-16.68Z"/>
                <path class="cls-1" d="M75.02,72.02h-12.51c-1.79,0-3.25-1.46-3.25-3.25s1.46-3.25,3.25-3.25h12.51c1.79,0,3.25,1.46,3.25,3.25s-1.46,3.25-3.25,3.25ZM39.57,72.02c-3,0-4.77-1.25-7.22-2.98-7.01-4.94-10.88-11.28-10.62-17.39.17-4,2.15-7.48,5.3-9.32h0c4.18-2.44,8.83-2.43,12.53,0,3.73-2.43,8.36-2.44,12.53,0,3.15,1.84,5.13,5.33,5.3,9.33.26,6.11-3.61,12.45-10.61,17.39-2.47,1.73-4.24,2.98-7.22,2.98ZM30.32,47.93h0c-1.23.72-2.01,2.21-2.09,3.99-.08,1.83.53,6.63,7.87,11.8,2.25,1.59,2.64,1.79,3.47,1.79s1.31-.27,3.47-1.79c7.34-5.18,7.95-9.98,7.87-11.81-.08-1.78-.86-3.27-2.09-3.99-2.84-1.66-4.89-.75-5.85-.06-1.25.89-2.11,1.51-3.4,1.51s-2.13-.6-3.4-1.5c-.97-.69-3.01-1.6-5.86.06Z"/>
              </svg>