<svg id="Layer_1" data-name="Layer 1" xmlns="http://www.w3.org/2000/svg" viewBox="0 0 100 100">
                                        <defs>
                                          <style>
      .cls-1 {
        fill: CurrentColor;
      }
    </style>
                                        </defs>
                                        <path class="cls-1" d="M50.14,89.71c-3.88,0-7.53-1.51-10.28-4.26l-26.4-26.4c-2.66-2.65-4.77-5.76-6.22-9.24-1.45-3.48-2.2-7.16-2.21-10.94,0-3.77.72-7.46,2.16-10.95,1.44-3.49,3.52-6.61,6.19-9.28,2.68-2.68,5.8-4.76,9.29-6.2,3.48-1.44,7.16-1.97,10.95-2.16,3.77,0,7.46.75,10.94,2.21,2,.84,3.87,1.88,5.62,3.13,4.78-3.33,10.6-5.08,16.41-5.06,7.55.05,14.66,3.02,20,8.35,5.34,5.34,8.3,12.44,8.36,20,.05,7.56-2.84,14.7-8.11,20.1-.02.02-.02.03-.04.04l-26.4,26.4c-2.71,2.71-6.45,4.26-10.27,4.26ZM33.57,20.68c-2.39,0-4.72.46-6.91,1.37-2.23.91-4.21,2.24-5.91,3.94-1.7,1.7-3.03,3.69-3.95,5.9-.91,2.22-1.37,4.56-1.37,6.96,0,2.41.48,4.75,1.4,6.95.93,2.21,2.26,4.19,3.97,5.89l26.41,26.41c1.53,1.54,4.3,1.54,5.84,0l26.38-26.38c3.33-3.43,5.15-7.95,5.12-12.75-.03-4.8-1.91-9.31-5.3-12.71-3.39-3.39-7.91-5.28-12.71-5.31h-.12c-4.76,0-9.24,1.83-12.65,5.15-2.03,1.99-5.31,1.98-7.33-.06-1.69-1.7-3.66-3.04-5.88-3.96-2.23-.93-4.81-1.14-7-1.4ZM83.13,55.38h.08-.08Z"/>
                                      </svg>