<svg id="Layer_1" data-name="Layer 1" xmlns="http://www.w3.org/2000/svg" viewBox="0 0 100 100">
                                <defs>
                                  <style>
      .cls-1 {
        fill: CurrentColor;
      }
    </style>
                                </defs>
                                <path class="cls-1" d="M50,4.85c-3.12,0-5.64,2.52-5.64,5.64v3.39c-12.87,2.61-22.57,14-22.57,27.65v3.32c0,8.29-3.05,16.3-8.55,22.5l-1.31,1.46c-1.48,1.66-1.83,4.04-.93,6.07.9,2.03,2.93,3.33,5.15,3.33h67.72c2.22,0,4.23-1.31,5.15-3.33.92-2.03.55-4.41-.93-6.07l-1.31-1.46c-5.5-6.21-8.55-14.2-8.55-22.5v-3.32c0-13.65-9.7-25.04-22.57-27.65v-3.39c0-3.12-2.52-5.64-5.64-5.64ZM57.98,91.85c2.12-2.12,3.3-4.99,3.3-7.99h-22.57c0,3,1.18,5.87,3.3,7.99,2.12,2.12,4.99,3.3,7.99,3.3s5.87-1.18,7.99-3.3Z"/>
                              </svg>