<svg id="Layer_1" data-name="Layer 1" xmlns="http://www.w3.org/2000/svg" viewBox="0 0 100 100">
                <defs>
                  <style>
      .cls-1 {
        fill: CurrentColor;
      }
    </style>
                </defs>
                <path class="cls-1" d="M50,90.01c-20.1,0-30.2,0-37.09-6.2-7.02-6.32-7.02-15.5-7.02-33.78l3.08-.03h-3.08c0-18.3,0-27.48,7.02-33.81,6.9-6.2,16.98-6.2,37.09-6.2s30.19,0,37.08,6.2c7.03,6.33,7.03,15.51,7.03,33.81s0,27.49-7.04,33.81c-6.88,6.2-16.97,6.2-37.08,6.2ZM50,16.15c-18.53,0-27.83,0-32.97,4.62-4.99,4.49-4.99,12.76-4.99,29.23v.03c0,16.46,0,24.71,4.99,29.2,5.13,4.62,14.43,4.62,32.97,4.62s27.83,0,32.96-4.62c5-4.49,5-12.76,5-29.24s0-24.74-5-29.23c-5.13-4.62-14.43-4.62-32.96-4.62Z"/>
                <path class="cls-1" d="M74.62,69.49h-16.41c-1.7,0-3.08-1.38-3.08-3.08s1.38-3.08,3.08-3.08h16.41c1.7,0,3.08,1.38,3.08,3.08s-1.38,3.08-3.08,3.08ZM41.79,69.49h-16.41c-1.7,0-3.08-1.38-3.08-3.08s1.38-3.08,3.08-3.08h16.41c1.7,0,3.08,1.38,3.08,3.08s-1.38,3.08-3.08,3.08ZM74.62,53.08h-16.41c-1.7,0-3.08-1.38-3.08-3.08s1.38-3.08,3.08-3.08h16.41c1.7,0,3.08,1.38,3.08,3.08s-1.38,3.08-3.08,3.08ZM35.23,53.08h-3.28c-3.55,0-5.9,0-7.77-1.85-1.87-1.88-1.87-4.23-1.87-7.79v-3.28c0-3.55,0-5.9,1.85-7.77,1.88-1.88,4.24-1.88,7.79-1.88h3.28c3.55,0,5.9,0,7.77,1.85,1.88,1.88,1.88,4.23,1.88,7.79v3.28c0,3.56,0,5.91-1.86,7.78-1.88,1.87-4.23,1.87-7.79,1.87ZM31.94,36.66c-1.49,0-3.17,0-3.59.17.1.14.1,1.83.1,3.31v3.28c0,1.49,0,3.17.18,3.59.14-.1,1.82-.1,3.31-.1h3.28c1.49,0,3.17,0,3.59-.17-.1-.15-.1-1.83-.1-3.31v-3.28c0-1.48,0-3.17-.18-3.59-.14.1-1.83.1-3.31.1h-3.28ZM74.62,36.66h-16.41c-1.7,0-3.08-1.38-3.08-3.08s1.38-3.08,3.08-3.08h16.41c1.7,0,3.08,1.38,3.08,3.08s-1.38,3.08-3.08,3.08Z"/>
              </svg>