<svg id="Layer_1" data-name="Layer 1" xmlns="http://www.w3.org/2000/svg" viewBox="0 0 100 100">
                                        <defs>
                                          <style>
      .cls-1 {
        fill: CurrentColor;
      }
    </style>
                                        </defs>
                                        <path class="cls-1" d="M91.8,95.28c-.89,0-1.78-.34-2.46-1.02l-20.18-20.18v12.49c0,1.93-1.56,3.48-3.48,3.48s-3.48-1.56-3.48-3.48v-20.99h0c.01-.45.11-.86.27-1.24.15-.38.38-.73.67-1.05h0s0,0,0,0h0c.04-.05.09-.1.14-.14h0s0-.01,0-.01h0c.32-.29.67-.52,1.05-.67.37-.16.79-.25,1.22-.27h.01s.05,0,.1,0h20.88c1.93,0,3.48,1.56,3.48,3.48s-1.56,3.48-3.48,3.48h-12.49l20.18,20.18c1.36,1.36,1.36,3.56,0,4.93-.68.68-1.57,1.02-2.46,1.02ZM8.2,95.28c-.89,0-1.78-.34-2.46-1.02-1.36-1.36-1.36-3.56,0-4.93l20.18-20.18h-12.49c-1.93,0-3.48-1.56-3.48-3.48s1.56-3.48,3.48-3.48h20.88s.07,0,.1,0h.01c.44.01.85.11,1.22.27.38.15.73.38,1.05.67h0s0,0,0,0h0c.05.05.1.1.14.15h0s0,0,0,0h0c.29.32.52.67.67,1.05.16.37.25.79.27,1.22h0v21c0,1.93-1.56,3.48-3.48,3.48s-3.48-1.56-3.48-3.48v-12.49l-20.18,20.18c-.68.68-1.57,1.02-2.46,1.02ZM65.67,37.81h-.1c-.44-.01-.85-.11-1.22-.27-.38-.15-.73-.38-1.05-.67h0s0,0,0,0h0c-.05-.05-.1-.1-.14-.15h0s0,0,0,0h0c-.29-.32-.52-.67-.67-1.05-.16-.37-.25-.79-.27-1.22h0V13.43c0-1.93,1.56-3.48,3.48-3.48s3.48,1.56,3.48,3.48v12.49l20.18-20.18c1.36-1.36,3.56-1.36,4.93,0s1.36,3.56,0,4.93l-20.18,20.18h12.49c1.93,0,3.48,1.56,3.48,3.48s-1.56,3.48-3.48,3.48h-20.9ZM34.33,37.81H13.43c-1.93,0-3.48-1.56-3.48-3.48s1.56-3.48,3.48-3.48h12.49L5.74,10.67c-1.36-1.36-1.36-3.56,0-4.93,1.36-1.36,3.56-1.36,4.93,0l20.18,20.18v-12.49c0-1.93,1.56-3.48,3.48-3.48s3.48,1.56,3.48,3.48v20.99h0c-.01.45-.11.86-.27,1.24-.15.38-.38.73-.67,1.05h0s0,0,0,0h0c-.04.05-.09.1-.14.14h0s0,.01,0,.01h0c-.32.29-.67.52-1.05.67-.37.16-.79.25-1.22.27h-.1Z"/>
                                      </svg>