<svg id="Layer_1" data-name="Layer 1" xmlns="http://www.w3.org/2000/svg" viewBox="0 0 100 100">
                              <defs>
                                <style>
      .cls-1 {
        fill: CurrentColor;
      }
      .cls-2 {
        opacity: 1;
      }
    </style>
                              </defs>
                              <g class="cls-2">
                                <path class="cls-1" d="M18.62,96.56c-2.6,0-4.71-2.11-4.71-4.71v-20.93c0-2.6,2.11-4.71,4.71-4.71h20.92c2.6,0,4.71,2.11,4.71,4.71s-2.11,4.71-4.71,4.71h-9.69c2.81,2.21,5.98,3.96,9.42,5.16,5.99,2.1,12.43,2.39,18.59.86,6.17-1.53,11.71-4.81,16.03-9.46,4.32-4.65,7.17-10.43,8.24-16.7.44-2.56,2.87-4.31,5.43-3.85,2.56.44,4.28,2.87,3.85,5.43-1.38,8.08-5.05,15.52-10.62,21.52-5.57,5.99-12.71,10.21-20.66,12.19-7.94,1.99-16.24,1.59-23.96-1.1-4.71-1.64-9.05-4.08-12.84-7.21v9.38c0,2.6-2.11,4.71-4.71,4.71ZM13.24,48.43c-.26,0-.53-.02-.8-.07-2.56-.44-4.28-2.87-3.85-5.43,1.38-8.07,5.04-15.51,10.62-21.51,5.57-5.99,12.71-10.21,20.66-12.19,7.95-1.99,16.23-1.59,23.97,1.1,4.71,1.64,9.04,4.09,12.84,7.21v-9.4c0-2.6,2.11-4.71,4.71-4.71s4.71,2.11,4.71,4.71v20.93c0,2.6-2.11,4.71-4.71,4.71h-20.92c-2.6,0-4.71-2.11-4.71-4.71s2.11-4.71,4.71-4.71h9.67c-2.81-2.21-5.98-3.95-9.4-5.15-6.01-2.1-12.44-2.39-18.6-.86-6.17,1.54-11.71,4.81-16.03,9.46-4.32,4.65-7.17,10.43-8.24,16.69-.39,2.3-2.38,3.92-4.63,3.92Z"/>
                              </g>
                            </svg>