<svg id="Layer_1" data-name="Layer 1" xmlns="http://www.w3.org/2000/svg" viewBox="0 0 100 100">
                                                  <defs>
                                                    <style>
      .cls-1 {
        fill: CurrentColor;
      }
    </style>
                                                  </defs>
                                                  <path class="cls-1" d="M74.8,5.12c-12.82,0-37.52,8.8-55.99,16.18-8.32,3.32-13.69,11.34-13.69,20.43s5.37,17.1,13.69,20.43c.96.38,1.94.77,2.93,1.16-.4,5.13.62,10.24,2.95,14.85,2.55,5.02,6.5,9.12,11.44,11.85l8.03,4.42c.54.3,1.13.44,1.71.44,1.25,0,2.46-.66,3.1-1.83.95-1.71.33-3.87-1.39-4.81l-8.02-4.42c-3.69-2.04-6.64-5.1-8.55-8.85-1.42-2.8-2.19-5.84-2.26-8.94,16.64,6.27,35.43,12.32,46.05,12.32,11.26,0,20.07-16.08,20.07-36.61S86.06,5.12,74.8,5.12ZM21.44,55.58c-5.6-2.24-9.23-7.67-9.23-13.85s3.63-11.61,9.23-13.85c16.09-6.43,29.85-11.06,40.03-13.56-4.13,6.66-6.75,16.33-6.75,27.4s2.63,20.77,6.77,27.43c-10.1-2.46-23.73-7.06-40.06-13.59ZM74.8,71.26c-6.14,0-12.99-12.12-12.99-29.52s6.85-29.52,12.99-29.52,12.99,12.13,12.99,29.52-6.84,29.52-12.99,29.52Z"/>
                                                </svg>