<svg id="Layer_1" data-name="Layer 1" xmlns="http://www.w3.org/2000/svg" viewBox="0 0 100 100">
                                <defs>
                                  <style>
      .cls-1 {
        fill: CurrentColor;
      }
    </style>
                                </defs>
                                <path class="cls-1" d="M35.59,9.1c0-2.35-1.89-4.25-4.25-4.25s-4.25,1.89-4.25,4.25v7.08h-7.08c-6.25,0-11.33,5.08-11.33,11.33v56.66c0,6.25,5.08,11.33,11.33,11.33h56.66c6.25,0,11.33-5.08,11.33-11.33V27.52c0-6.25-5.08-11.33-11.33-11.33h-7.08v-7.08c0-2.35-1.89-4.25-4.25-4.25s-4.25,1.89-4.25,4.25v7.08h-25.5v-7.08ZM17.17,38.85h62.33v45.33c0,1.56-1.27,2.83-2.83,2.83H20.01c-1.56,0-2.83-1.27-2.83-2.83v-45.33Z"/>
                              </svg>