<svg id="Layer_1" data-name="Layer 1" xmlns="http://www.w3.org/2000/svg" viewBox="0 0 100 100">
                <defs>
                  <style>
      .cls-1 {
        fill: CurrentColor;
      }
    </style>
                </defs>
                <path class="cls-1" d="M96.17,40.56c0-2.79-1.41-6.31-6.91-9.48,4.3-2.48,6.91-5.6,6.91-9.41,0-11.54-23.94-16.79-46.17-16.79S3.83,10.13,3.83,21.67c0,3.81,2.61,6.94,6.91,9.41-5.5,3.16-6.91,6.69-6.91,9.48,0,3.81,2.61,6.94,6.91,9.41-5.5,3.16-6.91,6.69-6.91,9.48,0,3.81,2.61,6.94,6.91,9.41-5.5,3.16-6.91,6.69-6.91,9.48,0,11.54,23.94,16.79,46.17,16.79s46.17-5.26,46.17-16.79c0-2.79-1.41-6.31-6.91-9.48,4.3-2.48,6.91-5.6,6.91-9.41,0-2.79-1.41-6.31-6.91-9.48,4.3-2.48,6.91-5.6,6.91-9.41ZM50,13.27c24.33,0,36.92,6.02,37.77,8.4-.85,2.38-13.43,8.4-37.77,8.4S12.86,23.93,12.21,21.73c.64-2.33,13.23-8.46,37.79-8.46ZM50,86.73c-24.56,0-37.15-6.13-37.79-8.33.15-.55,2.31-2.96,10.06-5.17,7.81,1.93,17.58,3,27.67,3h.13c10.09,0,19.85-1.07,27.67-3,7.74,2.21,9.9,4.61,10.06,5.04-.64,2.33-13.23,8.46-37.79,8.46ZM70.23,66.22c-6.06,1.05-13.01,1.61-20.17,1.62h-.12c-8,0-15.72-.71-22.25-2-9.91-1.99-15.06-4.94-15.47-6.33.15-.55,2.32-2.97,10.11-5.18,16.34,4.08,39.02,4.08,55.36,0,7.79,2.21,9.96,4.63,10.11,5.05-.43,1.57-6.28,4.86-17.56,6.84ZM50,48.95c-24.56,0-37.15-6.13-37.79-8.33.15-.55,2.32-2.97,10.11-5.18,16.34,4.08,39.02,4.08,55.36,0,7.79,2.21,9.96,4.63,10.11,5.05-.64,2.33-13.23,8.46-37.79,8.46Z"/>
              </svg>