<svg id="Layer_1" data-name="Layer 1" xmlns="http://www.w3.org/2000/svg" xmlns:xlink="http://www.w3.org/1999/xlink" viewBox="0 0 100 100">
                                <defs>
                                  <style>
      .cls-1 {
        fill: CurrentColor;
      }
      .cls-2 {
        fill: CurrentColor;
      }
      .cls-3 {
        clip-path: url(#clippath);
      }
    </style>
                                  <clippath id="clippath">
                                    <rect class="cls-1" x="2.37" y="7.66" width="95.27" height="84.68"/>
                                  </clippath>
                                </defs>
                                <g class="cls-3">
                                  <path class="cls-2" d="M41.18,14.72l-6.24,2.33c-.5.18-.83.66-.83,1.19s.33,1.01.83,1.19l6.24,2.33,2.33,6.24c.18.5.66.83,1.19.83s1.01-.33,1.19-.83l2.33-6.24,6.24-2.33c.5-.18.83-.66.83-1.19s-.33-1.01-.83-1.19l-6.24-2.33-2.33-6.24c-.18-.5-.66-.83-1.19-.83s-1.01.33-1.19.83l-2.33,6.24ZM9.99,73.06c-3.09,3.09-3.09,8.12,0,11.23l5.72,5.72c3.09,3.09,8.12,3.09,11.23,0l63.07-63.08c3.09-3.09,3.09-8.12,0-11.23l-5.72-5.71c-3.09-3.09-8.12-3.09-11.23,0L9.99,73.06ZM82.52,21.32l-17.37,17.37-3.85-3.85,17.37-17.37,3.85,3.85ZM3.61,27.04c-.74.28-1.24.99-1.24,1.79s.5,1.51,1.24,1.79l9.34,3.51,3.51,9.34c.28.74.99,1.24,1.79,1.24s1.51-.5,1.79-1.24l3.51-9.34,9.34-3.51c.74-.28,1.24-.99,1.24-1.79s-.5-1.51-1.24-1.79l-9.34-3.51-3.51-9.34c-.28-.74-.99-1.24-1.79-1.24s-1.51.5-1.79,1.24l-3.51,9.34-9.34,3.51ZM61.83,69.38c-.74.28-1.24.99-1.24,1.79s.5,1.5,1.24,1.79l9.34,3.51,3.51,9.34c.28.74.99,1.24,1.79,1.24s1.5-.5,1.79-1.24l3.51-9.34,9.34-3.51c.74-.28,1.24-.99,1.24-1.79s-.5-1.5-1.24-1.79l-9.34-3.51-3.51-9.34c-.28-.74-.99-1.24-1.79-1.24s-1.5.5-1.79,1.24l-3.51,9.34-9.34,3.51Z"/>
                                </g>
                              </svg>