<svg id="Layer_1" data-name="Layer 1" xmlns="http://www.w3.org/2000/svg" viewBox="0 0 100 100">
                                <defs>
                                  <style>
      .cls-1 {
        fill: CurrentColor;
      }
      .cls-2 {
        opacity: 1;
      }
    </style>
                                </defs>
                                <g class="cls-2">
                                  <path class="cls-1" d="M86.52,96.95h-52.17c-2.79,0-5.41-1.09-7.38-3.06s-3.06-4.59-3.06-7.38v-52.17c0-2.79,1.09-5.41,3.06-7.38,1.96-1.97,4.59-3.06,7.38-3.06h52.17c2.75,0,5.44,1.12,7.38,3.06,1.97,1.97,3.05,4.59,3.05,7.37v52.17c0,2.79-1.09,5.41-3.06,7.38-1.94,1.94-4.63,3.06-7.38,3.06ZM34.35,34.35v52.17h52.17v-52.17h-52.17ZM18.7,76.09h-5.22c-2.79,0-5.41-1.09-7.38-3.06s-3.06-4.59-3.06-7.38V13.48c0-2.79,1.09-5.41,3.06-7.38,1.96-1.97,4.59-3.06,7.38-3.06h52.17c2.75,0,5.44,1.12,7.38,3.06,1.97,1.97,3.05,4.59,3.05,7.37v5.22h-10.43v-5.22H13.48v52.17h5.22v10.43Z"/>
                                </g>
                              </svg>