<svg id="Layer_1" data-name="Layer 1" xmlns="http://www.w3.org/2000/svg" viewBox="0 0 100 100">
                <defs>
                  <style>
      .cls-1 {
        fill: CurrentColor;
      }
    </style>
                </defs>
                <path class="cls-1" d="M50,92.19c-.45,0-.89-.09-1.31-.28-.88-.38-21.41-9.7-21.41-34.13,0-.09,0-.18.01-.27.03-.35.07-.7.11-1.05-2.31.72-4.79.86-7.17.42-2.4-.45-4.68-1.49-6.58-3.01-1.91-1.52-3.42-3.51-4.39-5.75-.97-2.24-1.37-4.71-1.17-7.14.2-2.43,1.01-4.81,2.33-6.86,1.32-2.05,3.15-3.77,5.28-4.96,2.13-1.19,4.55-1.84,6.99-1.89.02,0,.04,0,.06,0h12.33v-.64c0-2.88.81-5.64,2.33-8.01l-5.27-5.27c-1.27-1.27-1.27-3.33,0-4.6,1.27-1.27,3.33-1.27,4.6,0l5.27,5.27c2.37-1.51,5.13-2.33,8.01-2.33s5.64.81,8.01,2.33l5.27-5.27c1.27-1.27,3.33-1.27,4.6,0,1.27,1.27,1.27,3.33,0,4.6l-5.27,5.27c1.51,2.37,2.33,5.13,2.33,8.01v.64h12.33c2.5.05,4.92.7,7.05,1.89s3.96,2.9,5.28,4.96c1.32,2.06,2.13,4.43,2.33,6.86.2,2.43-.2,4.9-1.17,7.14-.97,2.24-2.49,4.23-4.39,5.76-1.9,1.52-4.18,2.56-6.58,3.01-2.38.44-4.86.3-7.17-.42.04.35.08.7.11,1.05,0,.09.01.18.01.27,0,24.43-20.54,33.75-21.41,34.13-.42.18-.86.28-1.31.28ZM37.45,72.72c3.91,7.18,9.9,11.11,12.55,12.58,2.64-1.47,8.63-5.39,12.55-12.58h-25.1ZM34.86,66.22h30.29c.67-2.49,1.07-5.25,1.08-8.3-.15-1.62-.51-3.2-1.06-4.68h-30.33c-.55,1.48-.91,3.05-1.06,4.68.01,3.04.41,5.8,1.08,8.3ZM22.77,33.78c-1.37.03-2.72.4-3.92,1.07-1.2.67-2.23,1.64-2.98,2.8-.75,1.16-1.2,2.5-1.31,3.87-.11,1.37.12,2.77.66,4.03.55,1.27,1.4,2.39,2.48,3.25,1.08.86,2.36,1.45,3.72,1.7,1.36.25,2.77.17,4.08-.25,1.29-.41,2.48-1.13,3.44-2.1,4.14-4.57,9.51-10.26,13.44-14.38h-4.03s-.04,0-.07,0h-15.51ZM71.06,48.16c.96.96,2.15,1.69,3.44,2.1,1.32.41,2.73.5,4.08.25,1.36-.25,2.64-.84,3.72-1.7,1.08-.86,1.94-1.98,2.48-3.25.55-1.27.78-2.66.66-4.03-.11-1.37-.57-2.71-1.31-3.87-.75-1.16-1.78-2.13-2.98-2.8-1.2-.67-2.57-1.04-3.95-1.07h-15.46s-.07,0-.11,0h-4.01c3.93,4.12,9.3,9.81,13.44,14.38ZM39.07,46.75h21.85c-4.12-4.42-8.38-8.88-10.92-11.53-2.54,2.65-6.8,7.12-10.93,11.53ZM50,27.28h8.43v-.64c0-2.19-.83-4.25-2.34-5.83-.05-.04-.09-.09-.14-.13-.05-.04-.09-.09-.13-.14-1.58-1.51-3.64-2.34-5.83-2.34s-4.26.83-5.83,2.34c-.04.04-.08.09-.12.13-.04.04-.09.08-.13.12-1.51,1.58-2.34,3.64-2.34,5.83v.64h8.43Z"/>
              </svg>