<svg id="Layer_1" data-name="Layer 1" xmlns="http://www.w3.org/2000/svg" viewBox="0 0 100 100">
                            <defs>
                              <style>
      .cls-1 {
        fill: CurrentColor;
      }
    </style>
                            </defs>
                            <path class="cls-1" d="M50,50c5.93,0,11.61-2.35,15.8-6.55,4.19-4.19,6.55-9.87,6.55-15.8s-2.35-11.61-6.55-15.8c-4.19-4.19-9.87-6.55-15.8-6.55s-11.61,2.35-15.8,6.55c-4.19,4.19-6.55,9.87-6.55,15.8s2.35,11.61,6.55,15.8c4.19,4.19,9.87,6.55,15.8,6.55ZM42.02,58.38c-17.2,0-31.13,13.93-31.13,31.13,0,2.86,2.32,5.19,5.19,5.19h67.84c2.86,0,5.19-2.32,5.19-5.19,0-17.2-13.93-31.13-31.13-31.13h-15.96Z"/>
                          </svg>