<svg id="Layer_1" data-name="Layer 1" xmlns="http://www.w3.org/2000/svg" viewBox="0 0 100 100">
                <defs>
                  <style>
      .cls-1 {
        fill: CurrentColor;
      }
    </style>
                </defs>
                <path class="cls-1" d="M97.85,25.37c-.19-2.49-.82-5.65-2.69-6.56-1.02-.49-2.23-.28-3.62.65-1.05.7-2.95,2.76-4.96,4.94-1.69,1.83-3.98,4.32-4.71,4.69l-9.17-1.78-1.77-9.09c.86-1.12,2.34-2.49,3.9-3.95,3.57-3.33,7.26-6.77,6.34-9.36-.57-1.6-2.83-2.51-6.9-2.77-13.06-.84-24.64,8.06-26.89,20.71-.87,4.86-.36,8.72.77,13.31L4.98,75.63c-4.94,6.76-2.94,13.99,1.23,18.17,2.43,2.43,5.9,4.12,9.73,4.12,2.74,0,5.66-.87,8.51-2.96l39.43-43.13c1.02.13,2.05.36,3.05.59,1.38.31,2.81.64,4.29.71,7.29.32,14.34-2.5,19.42-7.75,5.16-5.33,7.78-12.62,7.21-20.01ZM8.75,82.93c.31-2.39,1.74-3.76,3.41-5.34.26-.25.52-.5.79-.76,6.78-6.66,14.22-13.11,21.41-19.34,6.78-5.87,13.78-11.95,20.27-18.23,1.52-1.71.71-3.65,0-5.36-.28-.68-.58-1.38-.72-2.04-1.21-5.64.09-11.43,3.57-15.9,3.23-4.14,8.03-6.73,13.3-7.2-.65.76-1.5,1.53-2.39,2.33-2.28,2.06-4.63,4.19-4.42,6.89.13,1.68,2.3,12.68,3.04,13.92.57.96,1.27,1.2,2.07,1.47l.2.07c1.58.54,12.87,2.86,14.27,2.62,1.47-.25,3.28-2.21,5.2-4.29.86-.94,1.75-1.9,2.5-2.55-.48,5.33-3.11,10.16-7.3,13.38-4.52,3.47-10.38,4.72-16.08,3.41-.6-.14-1.22-.4-1.87-.68-1.48-.63-3.17-1.35-4.76-.35l-.06.04-40.71,44.74c-2.52,1.85-5.67,2.07-8.24.56-2.53-1.49-3.86-4.33-3.46-7.4Z"/>
                <path class="cls-1" d="M16.4,86.86c.28,0,.58-.03.9-.09,1.52-.28,2.45-1.67,2.24-3.39-.18-1.54-1.34-3.16-3.4-3.04-1.22.07-2.21.73-2.7,1.82-.52,1.15-.38,2.57.37,3.52.37.47,1.16,1.18,2.58,1.18Z"/>
              </svg>