<svg id="Layer_1" data-name="Layer 1" xmlns="http://www.w3.org/2000/svg" viewBox="0 0 100 100">
                <defs>
                  <style>
      .cls-1 {
        fill: CurrentColor;
      }
    </style>
                </defs>
                <path class="cls-1" d="M13.78,97.24c-1.12-.05-2.5-.5-3.13-2.22l.12-90.28c.55-1.46,2.09-1.98,3.26-1.98.04,0,.09,0,.13,0l35.12,8.83h.06c.88.12,2.3,2.09,2.3,2.97v32.1h25.36l-.93-1.52c-.91-1.48-2.99-3.4-5.2-5.42-2.56-2.35-5.75-5.28-6.07-6.83-.24-1.18-.04-2.21.58-2.97.58-.71,1.48-1.12,2.47-1.12.84,0,1.68.29,2.45.82,2.72,1.92,15.54,14.88,17.8,17.82,1.53,1.98,1.62,3.1.38,4.75-2.15,2.89-16.04,16.8-18.58,18.6-.66.47-1.36.71-2.06.71-.98,0-1.92-.49-2.52-1.3-.67-.92-.84-2.08-.46-3.28.28-.88,3.62-3.99,5.83-6.05,2.01-1.87,3.91-3.64,4.73-4.71.05-.06.1-.1.15-.15.29-.26.89-.81.62-1.89l-.19-.76h-39.41c-.06,0-.3-.09-.67-.49-.81-.88-1.37-2.32-1.33-2.99.1-1.39,1.69-3.24,2.79-3.24h7.54v-29.12l-28.15-6.82v79l27.64-6.72.2-.21c.48-.49.54-1.07.34-7.96-.07-2.51-.15-5.1-.06-5.88.22-1.85,1.82-2.81,3.29-2.81s3.15.95,3.45,3.61c.37,3.32.42,13.09-.02,15.95-.26,1.7-1.25,2.34-3.1,2.97-5.77,1.98-12.27,3.35-18.55,4.68-5.43,1.15-11.04,2.33-16.2,3.91Z"/>
              </svg>