<svg id="Layer_1" data-name="Layer 1" xmlns="http://www.w3.org/2000/svg" viewBox="0 0 100 100">
                      <defs>
                        <style>
      .cls-1 {
        fill: CurrentColor;
      }
    </style>
                      </defs>
                      <path class="cls-1" d="M50,94.45c-19.32,0-29.97,0-37.21-7.24-7.24-7.24-7.24-17.88-7.24-37.21s0-29.97,7.24-37.21c7.24-7.24,17.89-7.24,37.21-7.24s29.97,0,37.21,7.24c7.24,7.24,7.24,17.88,7.24,37.21s0,29.97-7.24,37.21c-7.24,7.24-17.88,7.24-37.21,7.24ZM50,15.52c-17.2,0-25.84,0-30.16,4.32-4.32,4.32-4.32,12.96-4.32,30.16s0,25.85,4.32,30.16c4.32,4.32,12.96,4.32,30.16,4.32s25.85,0,30.16-4.32,4.32-12.96,4.32-30.16,0-25.84-4.32-30.16c-4.32-4.32-12.96-4.32-30.16-4.32ZM50,73.68c-6.32,0-12.27-2.46-16.74-6.93-4.41-4.41-6.94-10.52-6.94-16.75s2.53-12.33,6.94-16.74c4.47-4.47,10.42-6.94,16.74-6.94s12.34,2.53,16.75,6.94,6.93,10.51,6.93,16.74-2.46,12.27-6.93,16.75c-4.47,4.47-10.42,6.93-16.75,6.93ZM50,36.29c-3.66,0-7.1,1.43-9.69,4.02s-4.02,6.09-4.02,9.69,1.47,7.15,4.02,9.7c5.19,5.19,14.21,5.17,19.39,0,2.59-2.59,4.01-6.03,4.01-9.7s-1.46-7.14-4.01-9.69-6.09-4.02-9.7-4.02ZM72.88,32.14h-.04c-2.75,0-4.98-2.23-4.98-4.98s2.23-4.98,4.98-4.98,5,2.23,5,4.98-2.21,4.98-4.97,4.98Z"/>
                    </svg>