<svg id="Layer_1" data-name="Layer 1" xmlns="http://www.w3.org/2000/svg" viewBox="0 0 100 100">
                <defs>
                  <style>
      .cls-1 {
        fill: CurrentColor;
      }
    </style>
                </defs>
                <path class="cls-1" d="M44.84,86.58h-12.95c-2.39,0-4.71-.86-6.53-2.42-1.82-1.56-3.02-3.72-3.38-6.09l-5.55-36.08c-.12-.79-.07-1.62.15-2.39.22-.77.61-1.5,1.13-2.11.53-.62,1.17-1.1,1.91-1.44.74-.34,1.52-.51,2.34-.51h8.57v10.03c0,1.79,1.46,3.25,3.25,3.25s3.25-1.46,3.25-3.25v-10.03h20.05v10.03c0,1.79,1.46,3.25,3.25,3.25s3.25-1.46,3.25-3.25v-10.03h8.57c.81,0,1.6.17,2.34.51.73.34,1.39.83,1.91,1.44.53.62.91,1.33,1.13,2.11.22.77.27,1.6.15,2.39l-2.21,14.37c-.27,1.77.94,3.43,2.72,3.71,1.77.27,3.43-.94,3.71-2.72l2.21-14.37c.26-1.71.15-3.5-.32-5.17-.48-1.69-1.31-3.22-2.45-4.56-1.13-1.31-2.55-2.39-4.13-3.12-1.6-.73-3.3-1.1-5.05-1.1h-8.57v-5.6c0-4.42-1.72-8.56-4.84-11.69-3.12-3.12-7.27-4.84-11.69-4.84s-8.57,1.72-11.69,4.84c-3.12,3.12-4.84,7.27-4.84,11.69v5.6h-8.57c-1.75,0-3.45.37-5.05,1.1-1.6.73-2.99,1.78-4.13,3.12-1.13,1.32-1.98,2.89-2.45,4.56-.48,1.67-.59,3.45-.32,5.16l5.55,36.08c.6,3.9,2.58,7.46,5.57,10.03,2.99,2.57,6.82,3.98,10.76,3.98h12.95c1.79,0,3.25-1.46,3.25-3.25s-1.46-3.25-3.25-3.25ZM37.03,23.45c0-2.68,1.04-5.2,2.94-7.09,1.89-1.89,4.41-2.94,7.09-2.94s5.22,1.07,7.09,2.94c1.89,1.89,2.94,4.41,2.94,7.09v5.6h-20.05v-5.6Z"/>
                <path class="cls-1" d="M89.18,69.83c-1.27-1.27-3.33-1.27-4.6,0l-15.4,15.4-6.55-6.55c-1.27-1.27-3.33-1.27-4.6,0-1.27,1.27-1.27,3.33,0,4.6l8.85,8.85c.63.63,1.47.95,2.3.95s1.66-.32,2.3-.95l17.7-17.7c1.27-1.27,1.27-3.33,0-4.6Z"/>
              </svg>