<svg id="Layer_1" data-name="Layer 1" xmlns="http://www.w3.org/2000/svg" viewBox="0 0 100 100">
                <defs>
                  <style>
      .cls-1 {
        fill: CurrentColor;
      }
    </style>
                </defs>
                <path class="cls-1" d="M63.56,85.06c-.28.35-.81,2.82-1.23,3.69-4.94,10.29-19.48,10.56-24.55.24-.45-.92-1.08-3.59-1.35-3.93-.16-.2-1.8-.83-2.46-1.36-4.67-3.73-2.74-9.81-3.31-14.9-.8-7.17-5.9-10.69-9.13-16.36-10.47-18.41-1.06-42.11,19.36-47.76,28.35-7.85,52.08,22,37.57,47.76-3.27,5.81-8.44,9.28-9.16,16.69-.49,5.02,1.33,10.9-3.27,14.57-.67.53-2.3,1.16-2.46,1.36ZM69.53,17C50.66-2.03,18.25,14.49,23.15,41.36c1.3,7.14,4.44,9.68,8.21,15.09,2.58,3.69,4.21,8.01,4.81,12.48h27.64c.69-10.8,10.18-16.04,12.65-26.12,2.22-9.05-.34-19.15-6.94-25.8ZM63.47,74.77h-26.95c.11,1.94-.71,4.41,1.65,5.09,7.35-.53,15.73.74,22.95.03,3.17-.31,2.25-2.64,2.34-5.12ZM57.65,85.33h-15.29c2.46,7.72,12.84,7.71,15.29,0Z"/>
                <path class="cls-1" d="M5.83,18.04c2.37-.71,5.57,2.48,6.82,4.32,2.03,2.99-.13,5.75-3.34,4.43-1.26-.52-5.28-4.91-5.19-6.43.05-.75.99-2.1,1.71-2.32Z"/>
                <path class="cls-1" d="M92.13,18.05c2.37-.55,4.28,1.07,3.47,3.46s-7.53,8.71-9.04,3.75c-.62-2.03,3.95-6.84,5.57-7.22Z"/>
                <path class="cls-1" d="M9.84,50.82c2.37-.55,4.28,1.07,3.47,3.46s-7.53,8.71-9.04,3.75c-.62-2.03,3.95-6.84,5.57-7.22Z"/>
                <path class="cls-1" d="M88.13,50.82c2.37-.71,5.57,2.48,6.82,4.32,2.03,2.99-.13,5.75-3.34,4.43-1.26-.52-5.28-4.91-5.19-6.43.05-.75.99-2.1,1.71-2.32Z"/>
                <path class="cls-1" d="M5.47,36.25c1.1-.25,6.01-.24,7.04.09,2.52.79,2.32,4.64-.28,5.22-1.1.25-6.01.24-7.04-.09-2.52-.79-2.31-4.64.28-5.22Z"/>
                <path class="cls-1" d="M87.76,36.25c1.1-.25,6.01-.24,7.04.09,2.52.79,2.32,4.64-.28,5.22-1.1.25-6.01.24-7.04-.09-2.52-.79-2.31-4.64.28-5.22Z"/>
                <path class="cls-1" d="M71.01,38.25c-1.49,1.2-4.2.54-4.61-1.55-.93-4.75-.53-7.15-4.02-11.28-4.01-4.75-7.48-4.6-12.92-5.66-2.88-.56-2.77-4.96,0-5.42,7.21-1.19,16.33,5.13,19.65,11.26,1.28,2.37,4.29,10.72,1.89,12.64Z"/>
              </svg>