<svg id="Layer_1" data-name="Layer 1" xmlns="http://www.w3.org/2000/svg" viewBox="0 0 100 100">
                              <defs>
                                <style>
      .cls-1 {
        fill: CurrentColor;
      }
    </style>
                              </defs>
                              <path class="cls-1" d="M92.17,6.38c1.76,1.22,2.68,3.33,2.35,5.43l-11.15,72.45c-.26,1.69-1.29,3.17-2.79,4.01-1.5.84-3.29.94-4.88.28l-20.83-8.66-11.93,12.91c-1.55,1.69-3.99,2.25-6.13,1.41-2.14-.84-3.54-2.91-3.54-5.21v-14.56c0-.7.26-1.36.73-1.86l29.19-31.86c1.01-1.1.98-2.79-.07-3.83s-2.73-1.11-3.83-.12l-35.43,31.47-15.38-7.7c-1.85-.92-3.03-2.77-3.08-4.82-.05-2.06,1.03-3.97,2.8-5L86.25,6.14c1.86-1.06,4.16-.96,5.92.24Z"/>
                            </svg>